<svg width="21" height="21" viewBox="0 0 21 21" fill="none" xmlns="http://www.w3.org/2000/svg">
<path d="M4.17307 15.1374C3.93917 14.8586 3.95301 14.4545 4.19116 14.1925L4.26166 14.1248L15.2735 4.88473C15.5776 4.62957 16.031 4.66923 16.2861 4.97332C16.52 5.25206 16.5062 5.65623 16.268 5.9182L16.1976 5.98591L5.18567 15.226C4.88158 15.4811 4.42822 15.4415 4.17307 15.1374Z" fill="#777E90"/>
<path d="M7.52209 5.4556C7.12657 5.42185 6.8333 5.07387 6.86704 4.67835C6.89772 4.31879 7.1881 4.04373 7.5378 4.02204L7.64429 4.0233L15.7966 4.71885C16.1572 4.74962 16.4326 5.04157 16.453 5.39233L16.4513 5.49912L15.7213 13.6491C15.6859 14.0444 15.3367 14.3362 14.9413 14.3008C14.5819 14.2686 14.308 13.9771 14.2878 13.6273L14.2895 13.5208L14.9548 6.08971L7.52209 5.4556Z" fill="#777E90"/>
</svg>
