<?xml version="1.0" encoding="UTF-8" standalone="yes"?>
<!DOCTYPE svg PUBLIC "-//W3C//DTD SVG 1.1//EN" "http://www.w3.org/Graphics/SVG/1.1/DTD/svg11.dtd">

<svg width="850" height="150" viewBox="0 0 850 150" xmlns="http://www.w3.org/2000/svg" xmlns:xlink="http://www.w3.org/1999/xlink" version="1.1" baseProfile="full">
    <g transform="scale(1,-1) translate(0,-150)">
        <path d="M 345.726642 58.687508 L 332.664142 58.687508 C 324.226642 58.687508 319.601642 52.375008 319.601642 41.437508 L 319.601642 2.250006 L 294.351642 2.250006 L 294.351642 58.687512 L 283.789142 58.687512 C 275.351642 58.687512 270.726642 52.375012 270.726642 41.437512 L 270.726642 2.250007 L 245.476642 2.250007 L 245.476642 79.750008 L 270.726642 79.750008 L 270.726642 67.937500 C 274.914142 77.187500 280.414142 79.750000 288.851642 79.750000 L 319.601642 79.750000 L 319.601642 67.937500 C 323.789142 77.187500 329.289142 79.750000 337.726642 79.750000 L 346.164142 79.750000 L 345.726642 58.687508 Z M 239.539157 35.062497 L 187.289157 35.062497 C 188.539157 26.187497 194.039157 21.562497 202.851657 21.562497 C 209.601657 21.562497 214.226657 24.499997 215.914157 29.124997 L 238.226657 22.812497 C 232.726657 9.312496 219.289157 1.312495 202.851657 1.312495 C 175.476657 1.312495 162.851657 22.812497 162.851657 41.312497 C 162.851657 59.437497 173.789157 80.937500 201.164157 80.937500 C 230.226657 80.937500 239.914157 59.000000 239.914157 42.624997 C 239.976642 38.875000 239.976642 36.750004 239.539157 35.062497 Z M 215.539142 49.812500 C 215.101642 56.562504 210.039142 62.437504 201.664142 62.437504 C 193.664142 62.437504 189.039142 59.062504 187.351642 49.812500 L 215.539142 49.812500 Z M 119.039142 2.249996 L 140.976642 2.249996 L 168.789142 79.375000 L 143.476642 79.375000 L 129.976642 34.312500 L 116.476650 79.812500 L 91.226642 79.812500 L 119.039142 2.249996 Z M 16.226644 2.249996 L 41.101646 2.249996 L 41.101646 58.687500 L 65.101650 58.687500 L 65.101650 2.249996 L 89.976650 2.249996 L 89.976650 79.750000 L 41.101642 79.750000 L 41.101642 84.375000 C 41.101642 89.437500 44.914142 92.812500 50.351642 92.812500 L 65.101642 92.812500 L 65.101642 113.875000 L 46.601646 113.875000 C 28.476644 113.875000 16.289143 102.500000 16.289143 86.062500 L 16.289143 79.750000 L 1.914142 79.750000 L 1.914142 58.687497 L 16.226642 58.687497 L 16.226644 2.249996 Z" transform="scale(1.000000,1.000000) translate(27.000000,18.000000)" opacity="1.000000"></path>
        <path d="M 17.351642 1.125000 C 25.789142 1.125000 32.914142 8.312500 32.914142 16.687500 C 32.914142 25.125000 25.726642 32.250000 17.351642 32.250000 C 8.976641 32.250000 1.789141 25.062500 1.789141 16.687500 C 1.726641 8.249997 8.914141 1.125000 17.351642 1.125000 Z" transform="scale(1.000000,1.000000) translate(371.000000,17.000000)" fill="#22aa4d" opacity="1.000000"></path>
        <path d="M 71.614731 70.348930 C 69.817937 73.658818 67.217312 76.164877 63.812855 77.867105 C 60.502967 79.663901 56.578389 80.562299 52.039113 80.562299 C 44.189953 80.562299 37.901164 77.961672 33.172754 72.760422 C 28.444344 67.653736 26.080139 60.797542 26.080139 52.191834 C 26.080139 43.018718 28.538913 35.831536 33.456460 30.630285 C 38.468573 25.523596 45.324771 22.970259 54.025044 22.970259 C 59.982842 22.970259 64.994954 24.483346 69.061394 27.509535 C 73.222394 30.535716 76.248575 34.885855 78.139938 40.559942 L 47.357987 40.559942 L 47.357987 58.433335 L 100.127047 58.433335 L 100.127047 35.878816 C 98.330253 29.826454 95.256784 24.199647 90.906646 18.998389 C 86.651076 13.797138 81.213407 9.588857 74.593631 6.373538 C 67.973855 3.158219 60.502967 1.550556 52.180966 1.550556 C 42.345871 1.550556 33.551026 3.678344 25.796434 7.933913 C 18.136408 12.284051 12.131327 18.289134 7.781189 25.949152 C 3.525620 33.609178 1.397835 42.356739 1.397835 52.191834 C 1.397835 62.026930 3.525620 70.774487 7.781189 78.434513 C 12.131327 86.189108 18.136408 92.194188 25.796434 96.449758 C 33.456460 100.799900 42.204017 102.974969 52.039113 102.974969 C 63.954704 102.974969 73.978937 100.090634 82.111808 94.321974 C 90.339240 88.553313 95.776909 80.562299 98.424822 70.348930 L 71.614731 70.348930 Z M 137.819962 101.840150 L 137.819962 2.259818 L 113.563222 2.259818 L 113.563222 101.840150 L 137.819962 101.840150 Z M 221.501804 70.348930 C 219.705003 73.658818 217.104377 76.164877 213.699928 77.867105 C 210.390040 79.663901 206.465450 80.562299 201.926190 80.562299 C 194.077026 80.562299 187.788237 77.961672 183.059823 72.760422 C 178.331410 67.653736 175.967210 60.797542 175.967210 52.191834 C 175.967210 43.018718 178.425986 35.831536 183.343522 30.630285 C 188.355650 25.523596 195.211837 22.970259 203.912113 22.970259 C 209.869915 22.970259 214.882028 24.483346 218.948467 27.509535 C 223.109467 30.535716 226.135641 34.885855 228.027003 40.559942 L 197.245064 40.559942 L 197.245064 58.433335 L 250.014120 58.433335 L 250.014120 35.878816 C 248.217319 29.826454 245.143857 24.199647 240.793719 18.998389 C 236.538142 13.797138 231.100480 9.588857 224.480704 6.373538 C 217.860928 3.158219 210.390040 1.550556 202.068039 1.550556 C 192.232936 1.550556 183.438099 3.678344 175.683511 7.933913 C 168.023485 12.284051 162.018395 18.289134 157.668257 25.949152 C 153.412695 33.609178 151.284907 42.356739 151.284907 52.191834 C 151.284907 62.026930 153.412695 70.774487 157.668257 78.434513 C 162.018395 86.189108 168.023485 92.194188 175.683511 96.449758 C 183.343522 100.799900 192.091087 102.974969 201.926190 102.974969 C 213.841777 102.974969 223.866003 100.090634 231.998881 94.321974 C 240.226305 88.553313 245.663982 80.562299 248.311895 70.348930 L 221.501804 70.348930 Z M 299.480382 1.266849 C 292.198632 1.266849 285.673432 2.448956 279.904753 4.813163 C 274.136105 7.177362 269.502252 10.676388 266.003227 15.310233 C 262.598777 19.944078 260.801976 25.523596 260.612853 32.048803 L 286.429983 32.048803 C 286.808259 28.360647 288.084920 25.523596 290.259996 23.537665 C 292.435043 21.646302 295.272094 20.700621 298.771120 20.700621 C 302.364722 20.700621 305.201773 21.504453 307.282273 23.112109 C 309.362773 24.814341 310.403024 27.131259 310.403024 30.062872 C 310.403024 32.521648 309.551896 34.554860 307.849671 36.162523 C 306.242023 37.770179 304.208811 39.094136 301.750035 40.134386 C 299.385806 41.174636 295.981357 42.356739 291.536657 43.680696 C 285.106034 45.666627 279.857495 47.652562 275.791041 49.638494 C 271.724617 51.624425 268.225591 54.556041 265.293964 58.433335 C 262.362366 62.310633 260.896552 67.370033 260.896552 73.611534 C 260.896552 82.879220 264.253714 90.113688 270.968066 95.314939 C 277.682419 100.610760 286.429983 103.258669 297.210760 103.258669 C 308.180659 103.258669 317.022800 100.610760 323.737122 95.314939 C 330.451474 90.113688 334.045077 82.831935 334.517898 73.469683 L 308.275235 73.469683 C 308.086082 76.685002 306.903998 79.191060 304.728921 80.987855 C 302.553845 82.879220 299.764082 83.824901 296.359632 83.824901 C 293.428035 83.824901 291.063805 83.021071 289.267034 81.413412 C 287.470233 79.900321 286.571818 77.677967 286.571818 74.746353 C 286.571818 71.531034 288.084920 69.024977 291.111093 67.228180 C 294.137297 65.431383 298.865696 63.492736 305.296319 61.412236 C 311.726973 59.237167 316.928223 57.156666 320.900101 55.170735 C 324.966525 53.184800 328.465551 50.300472 331.397148 46.517743 C 334.328776 42.735015 335.794590 37.864748 335.794590 31.906954 C 335.794590 26.232859 334.328776 21.078889 331.397148 16.445052 C 328.560127 11.811207 324.399097 8.123051 318.914147 5.380569 C 313.429197 2.638094 306.951286 1.266849 299.480382 1.266849 Z M 362.070742 1.125000 C 357.815196 1.125000 354.316170 2.354387 351.573695 4.813163 C 348.925767 7.366500 347.601817 10.487250 347.601817 14.175414 C 347.601817 17.958139 348.925767 21.126177 351.573695 23.679522 C 354.316170 26.232859 357.815196 27.509535 362.070742 27.509535 C 366.231743 27.509535 369.636222 26.232859 372.284121 23.679522 C 375.026595 21.126177 376.397833 17.958139 376.397833 14.175414 C 376.397833 10.487250 375.026595 7.366500 372.284121 4.813163 C 369.636222 2.354387 366.231743 1.125000 362.070742 1.125000 Z M 362.070742 58.858895 C 357.815196 58.858895 354.316170 60.088279 351.573695 62.547055 C 348.925767 65.100396 347.601817 68.221146 347.601817 71.909306 C 347.601817 75.692036 348.925767 78.860071 351.573695 81.413412 C 354.316170 83.966754 357.815196 85.243425 362.070742 85.243425 C 366.231743 85.243425 369.636222 83.966754 372.284121 81.413412 C 375.026595 78.860071 376.397833 75.692036 376.397833 71.909306 C 376.397833 68.221146 375.026595 65.100396 372.284121 62.547055 C 369.636222 60.088279 366.231743 58.858895 362.070742 58.858895 Z" transform="scale(1.000000,1.000000) translate(452.000000,17.000000)" fill="#22aa4d" opacity="1.000000"></path>
    </g>
</svg>